<svg width="92" height="112" viewBox="0 0 92 112" fill="none" xmlns="http://www.w3.org/2000/svg">
<path d="M43.8582 13.464L36.241 5.89594C28.3781 -1.91168 15.6439 -1.91168 7.78718 5.89594L6.22071 7.45009C-1.6422 15.2577 -1.6422 27.9182 6.22071 35.7197L6.64461 36.1436C10.1399 39.6143 14.4154 42.1882 19.0717 43.8529C39.6442 51.2059 39.202 61.1267 18.9427 68.0314C14.3908 69.5794 10.2075 72.0611 6.79818 75.4397L6.21456 76.0171C-1.64834 83.8247 -1.64834 96.4852 6.21456 104.287L7.78103 105.841C15.6439 113.649 28.3781 113.649 36.2349 105.841L43.8521 98.2728C51.7089 90.4652 51.7089 77.8047 43.8521 70.0032C35.9892 62.1956 35.9892 49.5351 43.8521 41.7336C51.7089 33.926 51.7089 21.2655 43.8521 13.464H43.8582Z" fill="#FF5640"/>
<path d="M46.168 55.8745C46.168 62.558 59.0005 76.9631 70.4632 76.9631C81.9258 76.9631 91.6868 67.5215 91.6868 55.8745C91.6868 44.2276 82.1899 34.786 70.4632 34.786L46.168 55.8745Z" fill="#FF5640"/>
<path d="M46.168 55.8745C46.168 49.1911 59.0005 34.786 70.4632 34.786C81.9258 34.786 91.6868 44.2276 91.6868 55.8745C91.6868 67.5215 82.1899 76.9631 70.4632 76.9631L46.168 55.8745Z" fill="#FF5640"/>
</svg>
